# xmcd
#
# Track frame offsets: 
#        150
#        22579
#        47351
#        65541
#        100909
#        104573
#        120314
#        126165
#        144374
#        161186
#        177163
#        214924
#        232938
#        240851
#        254914
#        290089
#        305164
#        323914
#
# Disc length: 4468 seconds
#
# Revision: 2
# Processed by: cddbd v1.5.1PL2 Copyright (c) Steve Scherf et al.
# Submitted via: ExactAudioCopy v0.95b4
#
DISCID=00117212
DTITLE=Uusi Fantasia - Top Ten
DYEAR=2004
DGENRE=Electronic
TTITLE0=Takaisin 2002
TTITLE1=Lattialla taas
TTITLE2=Meikku
TTITLE3=Tarmon humppa
TTITLE4=Untitled
TTITLE5=Alin kekkerit
TTITLE6=Wet pussy
TTITLE7=Faija
TTITLE8=Yksin
TTITLE9=Ilta
TTITLE10=Nasty raydio
TTITLE11=Fantasia
TTITLE12=Tixa kertoo bonusosiosta
TTITLE13=Yksin (Kaikkien lahtarien on kuoltava)
TTITLE14=Tamon jazzhumppa
TTITLE15=Fantasia (Ercolamix)
TTITLE16=Skillsters UF-Megamix-03
TTITLE17=Jim Kohl ja aanikirje
EXTD=
EXTT0=
EXTT1=
EXTT2=
EXTT3=
EXTT4=
EXTT5=
EXTT6=
EXTT7=
EXTT8=
EXTT9=
EXTT10=
EXTT11=
EXTT12=
EXTT13=
EXTT14=
EXTT15=
EXTT16=
EXTT17=
PLAYORDER=
